<svg width="18" height="18" viewBox="0 0 18 18" fill="none" xmlns="http://www.w3.org/2000/svg">
<path d="M9 18C13.9706 18 18 13.9706 18 9C18 4.02944 13.9706 0 9 0C4.02944 0 0 4.02944 0 9C0 13.9706 4.02944 18 9 18Z" fill="#FFCC4D"/>
<path d="M9 10.5001C7.1885 10.5001 5.9865 10.2891 4.5 10.0001C4.1605 9.9346 3.5 10.0001 3.5 11.0001C3.5 13.0001 5.7975 15.5001 9 15.5001C12.202 15.5001 14.5 13.0001 14.5 11.0001C14.5 10.0001 13.8395 9.9341 13.5 10.0001C12.0135 10.2891 10.8115 10.5001 9 10.5001Z" fill="#6842C2"/>
<path d="M4.5 11.0001C4.5 11.0001 6 11.5001 9 11.5001C12 11.5001 13.5 11.0001 13.5 11.0001C13.5 11.0001 12.5 13.5626 9 13.5626C5.5 13.5626 4.5 11.0001 4.5 11.0001Z" fill="white"/>
<path d="M13.3307 6.44952C13.3307 7.30652 12.8617 8.00152 12.2827 8.00152C11.7042 8.00152 11.2347 7.30652 11.2347 6.44952C11.2347 5.59252 11.7037 4.89752 12.2827 4.89752C12.8617 4.89752 13.3307 5.59252 13.3307 6.44952ZM4.74719 6.44952C4.74719 7.30652 5.21619 8.00152 5.79519 8.00152C6.37369 8.00152 6.84319 7.30652 6.84319 6.44952C6.84319 5.59252 6.37419 4.89752 5.79519 4.89752C5.21619 4.89752 4.74719 5.59252 4.74719 6.44952Z" fill="#6842C2"/>
<path d="M17.4226 4.25109C17.3371 4.16809 16.7891 4.38809 16.2346 4.10559C15.0906 3.52259 12.1996 2.96009 10.3176 4.29359C10.1161 4.43609 9.27406 4.46009 9.03856 4.45009C8.80306 4.46059 7.96106 4.43659 7.75956 4.29359C5.87806 2.96009 2.98706 3.52259 1.84306 4.10559C1.28856 4.38809 0.740563 4.16809 0.655063 4.25109C0.531563 4.37059 0.531563 4.84909 0.655563 4.96909C0.778563 5.08859 1.39406 5.22659 1.51656 5.58509C1.64006 5.94409 1.64106 8.06409 2.62306 8.79709C3.54256 9.48309 5.68756 9.68959 7.04706 8.91609C8.23306 8.24159 8.19156 6.82159 8.40906 5.97559C8.48656 5.67409 8.70506 5.52209 9.03906 5.52209C9.37306 5.52209 9.59156 5.67409 9.66906 5.97559C9.88656 6.82109 9.84456 8.24159 11.0311 8.91609C12.3906 9.68909 14.5356 9.48259 15.4546 8.79709C16.4371 8.06459 16.4381 5.94409 16.5611 5.58509C16.6836 5.22659 17.2991 5.08809 17.4221 4.96909C17.5461 4.84909 17.5466 4.37059 17.4226 4.25109ZM7.32556 6.07609C7.28706 6.62859 7.18856 7.68959 6.52706 8.06609C6.12156 8.29709 5.59306 8.43759 5.04006 8.43759H5.03956C4.42706 8.43759 3.57806 8.26409 3.24606 8.01659C2.83106 7.70709 2.67306 6.43309 2.61356 5.95659C2.57556 5.65309 2.47356 4.91159 2.80756 4.79759C3.33756 4.61709 4.07706 4.47609 4.83356 4.47609C5.18006 4.47609 6.34406 4.49759 6.91106 4.84659C7.41356 5.15509 7.34706 5.77209 7.32556 6.07609ZM15.4646 5.94959C15.4051 6.42659 15.2471 7.70709 14.8321 8.01659C14.5001 8.26409 13.6511 8.43759 13.0386 8.43759H13.0381C12.4846 8.43759 11.9566 8.29709 11.5506 8.06609C10.8891 7.69009 10.7906 6.63559 10.7521 6.08309C10.7311 5.77909 10.6641 5.15759 11.1666 4.84909C11.7341 4.50009 12.8976 4.47609 13.2441 4.47609C14.0006 4.47609 14.7396 4.61459 15.2701 4.79509C15.6041 4.90909 15.5026 5.64609 15.4646 5.94959Z" fill="#6842C2"/>
</svg>
