<svg width="269" height="240" viewBox="0 0 269 240" fill="none" xmlns="http://www.w3.org/2000/svg">
<path d="M268 150L262.348 155.621" stroke="#04D361" stroke-width="2" stroke-miterlimit="10" stroke-linecap="round" stroke-linejoin="round"/>
<path d="M268 155.621L262.348 150" stroke="#04D361" stroke-width="2" stroke-miterlimit="10" stroke-linecap="round" stroke-linejoin="round"/>
<path d="M9.78675 150.619L1.7936 150.619" stroke="#04D361" stroke-width="2" stroke-miterlimit="10" stroke-linecap="round" stroke-linejoin="round"/>
<path d="M5.79108 154.603L5.79108 146.645" stroke="#04D361" stroke-width="2" stroke-miterlimit="10" stroke-linecap="round" stroke-linejoin="round"/>
<path d="M190.205 23.6612C187.529 23.6612 185.348 21.5019 185.348 18.8306C185.348 16.1687 187.519 14 190.205 14C192.882 14 195.063 16.1593 195.063 18.8306C195.054 21.5019 192.882 23.6612 190.205 23.6612Z" stroke="#04D361" stroke-width="2" stroke-miterlimit="10" stroke-linecap="round" stroke-linejoin="round"/>
<path d="M95.2054 238.661C92.5285 238.661 90.3477 236.502 90.3477 233.831C90.3477 231.169 92.5191 229 95.2054 229C97.8822 229 100.063 231.159 100.063 233.831C100.054 236.502 97.8822 238.661 95.2054 238.661Z" stroke="#04D361" stroke-width="2" stroke-miterlimit="10" stroke-linecap="round" stroke-linejoin="round"/>
<path d="M55.3888 1.74976C55.3888 2.71599 56.1765 3.49927 57.1481 3.49927C58.1198 3.49927 58.9074 2.71599 58.9074 1.74976C58.9074 0.783529 58.1198 0.000244106 57.1481 0.000244064C56.1765 0.000244021 55.3888 0.783528 55.3888 1.74976Z" fill="#9871F5"/>
<path d="M55.3888 13.9703C55.3888 14.9366 56.1765 15.7199 57.1481 15.7199C58.1198 15.7199 58.9074 14.9366 58.9074 13.9703C58.9074 13.0041 58.1198 12.2208 57.1481 12.2208C56.1765 12.2208 55.3888 13.0041 55.3888 13.9703Z" fill="#9871F5"/>
<path d="M55.3888 26.1799C55.3888 27.1462 56.1765 27.9294 57.1481 27.9294C58.1198 27.9294 58.9074 27.1462 58.9074 26.1799C58.9074 25.2137 58.1198 24.4304 57.1481 24.4304C56.1765 24.4304 55.3888 25.2137 55.3888 26.1799Z" fill="#9871F5"/>
<path d="M55.3888 38.4001C55.3888 39.3664 56.1765 40.1497 57.1481 40.1497C58.1198 40.1497 58.9074 39.3664 58.9074 38.4001C58.9074 37.4339 58.1198 36.6506 57.1481 36.6506C56.1765 36.6506 55.3888 37.4339 55.3888 38.4001Z" fill="#9871F5"/>
<path d="M55.3888 50.6107C55.3888 51.5769 56.1765 52.3602 57.1481 52.3602C58.1198 52.3602 58.9074 51.5769 58.9074 50.6107C58.9074 49.6445 58.1198 48.8612 57.1481 48.8612C56.1765 48.8612 55.3888 49.6445 55.3888 50.6107Z" fill="#9871F5"/>
<path d="M43.1088 1.74951C43.1088 2.71574 43.8965 3.49903 44.8681 3.49903C45.8398 3.49903 46.6274 2.71574 46.6274 1.74951C46.6274 0.783284 45.8398 -3.44304e-08 44.8681 -7.69023e-08C43.8965 -1.19374e-07 43.1088 0.783284 43.1088 1.74951Z" fill="#9871F5"/>
<path d="M43.1088 13.9702C43.1088 14.9364 43.8965 15.7197 44.8681 15.7197C45.8398 15.7197 46.6274 14.9364 46.6274 13.9702C46.6274 13.004 45.8398 12.2207 44.8681 12.2207C43.8965 12.2207 43.1088 13.004 43.1088 13.9702Z" fill="#9871F5"/>
<path d="M43.1088 26.1802C43.1088 27.1464 43.8965 27.9297 44.8681 27.9297C45.8398 27.9297 46.6274 27.1464 46.6274 26.1802C46.6274 25.2139 45.8398 24.4307 44.8681 24.4307C43.8965 24.4307 43.1088 25.2139 43.1088 26.1802Z" fill="#9871F5"/>
<path d="M43.1088 38.4004C43.1088 39.3666 43.8965 40.1499 44.8681 40.1499C45.8398 40.1499 46.6274 39.3666 46.6274 38.4004C46.6274 37.4342 45.8398 36.6509 44.8681 36.6509C43.8965 36.6509 43.1088 37.4342 43.1088 38.4004Z" fill="#9871F5"/>
<path d="M43.1088 50.6108C43.1088 51.5771 43.8965 52.3603 44.8681 52.3603C45.8398 52.3603 46.6274 51.5771 46.6274 50.6108C46.6274 49.6446 45.8398 48.8613 44.8681 48.8613C43.8965 48.8613 43.1088 49.6446 43.1088 50.6108Z" fill="#9871F5"/>
<path d="M30.8195 1.74951C30.8195 2.71574 31.6072 3.49903 32.5789 3.49903C33.5505 3.49903 34.3382 2.71574 34.3382 1.74951C34.3382 0.783284 33.5505 -3.44305e-08 32.5789 -7.69024e-08C31.6072 -1.19374e-07 30.8195 0.783284 30.8195 1.74951Z" fill="#9871F5"/>
<path d="M30.8195 13.9702C30.8195 14.9364 31.6072 15.7197 32.5789 15.7197C33.5505 15.7197 34.3382 14.9364 34.3382 13.9702C34.3382 13.004 33.5505 12.2207 32.5789 12.2207C31.6072 12.2207 30.8195 13.004 30.8195 13.9702Z" fill="#9871F5"/>
<path d="M30.8195 26.1802C30.8195 27.1464 31.6072 27.9297 32.5789 27.9297C33.5505 27.9297 34.3382 27.1464 34.3382 26.1802C34.3382 25.2139 33.5505 24.4307 32.5789 24.4307C31.6072 24.4307 30.8195 25.2139 30.8195 26.1802Z" fill="#9871F5"/>
<path d="M30.8196 38.4004C30.8196 39.3666 31.6072 40.1499 32.5789 40.1499C33.5505 40.1499 34.3382 39.3666 34.3382 38.4004C34.3382 37.4342 33.5505 36.6509 32.5789 36.6509C31.6072 36.6509 30.8196 37.4342 30.8196 38.4004Z" fill="#9871F5"/>
<path d="M30.8195 50.6108C30.8195 51.5771 31.6072 52.3603 32.5789 52.3603C33.5505 52.3603 34.3382 51.5771 34.3382 50.6108C34.3382 49.6446 33.5505 48.8613 32.5789 48.8613C31.6072 48.8613 30.8195 49.6446 30.8195 50.6108Z" fill="#9871F5"/>
<path d="M18.5398 1.74951C18.5398 2.71574 19.3274 3.49903 20.2991 3.49903C21.2707 3.49903 22.0584 2.71574 22.0584 1.74951C22.0584 0.783284 21.2707 -3.44305e-08 20.2991 -7.69025e-08C19.3274 -1.19374e-07 18.5398 0.783284 18.5398 1.74951Z" fill="#9871F5"/>
<path d="M18.5398 13.9702C18.5398 14.9364 19.3274 15.7197 20.2991 15.7197C21.2707 15.7197 22.0584 14.9364 22.0584 13.9702C22.0584 13.004 21.2707 12.2207 20.2991 12.2207C19.3275 12.2207 18.5398 13.004 18.5398 13.9702Z" fill="#9871F5"/>
<path d="M18.5398 26.1802C18.5398 27.1464 19.3274 27.9297 20.2991 27.9297C21.2707 27.9297 22.0584 27.1464 22.0584 26.1802C22.0584 25.2139 21.2707 24.4307 20.2991 24.4307C19.3275 24.4307 18.5398 25.2139 18.5398 26.1802Z" fill="#9871F5"/>
<path d="M18.5398 38.4004C18.5398 39.3666 19.3274 40.1499 20.2991 40.1499C21.2707 40.1499 22.0584 39.3666 22.0584 38.4004C22.0584 37.4342 21.2707 36.6509 20.2991 36.6509C19.3275 36.6509 18.5398 37.4342 18.5398 38.4004Z" fill="#9871F5"/>
<path d="M18.5398 50.6108C18.5398 51.5771 19.3275 52.3603 20.2991 52.3603C21.2707 52.3603 22.0584 51.5771 22.0584 50.6108C22.0584 49.6446 21.2707 48.8613 20.2991 48.8613C19.3275 48.8613 18.5398 49.6446 18.5398 50.6108Z" fill="#9871F5"/>
<path d="M249.829 208.75C249.829 209.716 250.617 210.499 251.588 210.499C252.56 210.499 253.348 209.716 253.348 208.75C253.348 207.783 252.56 207 251.588 207C250.617 207 249.829 207.783 249.829 208.75Z" fill="#9871F5"/>
<path d="M249.829 220.96C249.829 221.926 250.617 222.709 251.588 222.709C252.56 222.709 253.348 221.926 253.348 220.96C253.348 219.994 252.56 219.21 251.588 219.21C250.617 219.21 249.829 219.994 249.829 220.96Z" fill="#9871F5"/>
<path d="M249.829 233.18C249.829 234.146 250.617 234.929 251.588 234.929C252.56 234.929 253.348 234.146 253.348 233.18C253.348 232.213 252.56 231.43 251.588 231.43C250.617 231.43 249.829 232.213 249.829 233.18Z" fill="#9871F5"/>
<path d="M237.54 208.75C237.54 209.716 238.328 210.499 239.299 210.499C240.271 210.499 241.058 209.716 241.058 208.75C241.058 207.783 240.271 207 239.299 207C238.328 207 237.54 207.783 237.54 208.75Z" fill="#9871F5"/>
<path d="M237.54 220.96C237.54 221.926 238.327 222.709 239.299 222.709C240.271 222.709 241.058 221.926 241.058 220.96C241.058 219.994 240.271 219.21 239.299 219.21C238.327 219.21 237.54 219.994 237.54 220.96Z" fill="#9871F5"/>
<path d="M237.54 233.18C237.54 234.146 238.327 234.93 239.299 234.93C240.271 234.93 241.058 234.146 241.058 233.18C241.058 232.214 240.271 231.431 239.299 231.431C238.327 231.431 237.54 232.214 237.54 233.18Z" fill="#9871F5"/>
<g clip-path="url(#clip0_31952_957)">
<path d="M83.8235 80.9775H64.6695C59.5724 80.9775 57 83.4481 57 88.3415V114.531C57 115.173 57.345 115.568 58.0884 115.568H63.8784C64.5713 115.568 65.0173 115.173 65.0173 114.531V113.537C65.0173 111.111 66.0412 109.789 68.5856 109.534H83.8235C89.4143 109.534 91.939 107.114 91.939 101.826V88.686C91.939 83.3976 89.4143 80.9775 83.8235 80.9775ZM83.9301 99.6016C83.9301 102.47 83.2793 103.061 79.8625 103.061H71.747C68.3331 103.061 66.1534 104.198 65.0145 106.422V90.2686C65.0145 88.0446 65.5587 87.4507 68.2798 87.4507H79.8625C83.2793 87.4507 83.9301 88.0446 83.9301 90.91V99.6016Z" fill="white"/>
<path d="M110.299 95.4561C105.895 95.4561 104.013 97.6801 104.013 101.436V114.629C104.013 115.223 103.715 115.568 103.022 115.568H97.7767C97.0838 115.568 96.7388 115.223 96.7388 114.629V90.515C96.7388 89.9212 97.0838 89.5739 97.7767 89.5739H102.181C102.826 89.5739 103.171 89.9212 103.171 90.515V94.4057C104.013 91.1957 106.439 89.5627 110.745 89.5627H112.527C113.169 89.5627 113.514 89.91 113.514 90.5038V94.5177C113.514 95.1592 113.169 95.4561 112.527 95.4561H110.299Z" fill="white"/>
<path d="M144.444 108.501C144.444 113.394 142.268 115.568 137.072 115.568H124.205C119.057 115.568 116.83 113.394 116.83 108.501V96.6465C116.83 91.7559 119.057 89.5795 124.205 89.5795H137.072C142.268 89.5795 144.444 91.7559 144.444 96.6465V108.501ZM137.17 98.5204C137.17 95.9491 136.677 95.4561 133.608 95.4561H127.717C124.6 95.4561 124.104 95.9491 124.104 98.5204V106.624C124.104 109.192 124.6 109.688 127.717 109.688H133.608C136.677 109.688 137.17 109.192 137.17 106.624V98.5204Z" fill="white"/>
<path d="M151.769 95.4561H149.292C148.647 95.4561 148.302 95.1592 148.302 94.5178V90.5151C148.302 89.9212 148.647 89.5739 149.292 89.5739H151.766V86.3639C151.769 81.4705 154.341 79 159.438 79H165.526C166.218 79 166.516 79.3473 166.516 79.9383V83.941C166.516 84.5853 166.218 84.8794 165.526 84.8794H162.311C159.587 84.8794 159.043 85.4732 159.043 87.6972V89.5739H165.526C166.218 89.5739 166.516 89.9212 166.516 90.5151V94.5178C166.516 95.1592 166.218 95.4561 165.526 95.4561H159.043V114.629C159.043 115.223 158.698 115.568 158.005 115.568H152.759C152.066 115.568 151.769 115.223 151.769 114.629V95.4561Z" fill="white"/>
<path d="M171.961 95.4561H169.489C168.847 95.4561 168.502 95.1592 168.502 94.5178V90.5151C168.502 89.9212 168.847 89.5739 169.489 89.5739H171.966V86.3639C171.961 81.4705 174.539 79 179.63 79H185.718C186.41 79 186.708 79.3473 186.708 79.9383V83.941C186.708 84.5853 186.41 84.8794 185.718 84.8794H182.5C179.779 84.8794 179.235 85.4732 179.235 87.6972V89.5739H185.718C186.41 89.5739 186.708 89.9212 186.708 90.5151V94.5178C186.708 95.1592 186.41 95.4561 185.718 95.4561H179.235V114.629C179.235 115.223 178.887 115.568 178.194 115.568H172.948C172.255 115.568 171.961 115.223 171.961 114.629V95.4561Z" fill="white"/>
<path d="M208.827 125.649H198.038C193.191 125.649 191.112 123.772 191.112 119.125V118.632C191.098 118.499 191.113 118.365 191.158 118.239C191.203 118.114 191.275 118 191.37 117.906C191.465 117.812 191.58 117.74 191.706 117.697C191.832 117.653 191.967 117.639 192.099 117.654H197.149C197.842 117.654 198.187 118.002 198.187 118.643V118.89C198.187 119.878 198.734 120.273 199.822 120.273H206.058C209.026 120.273 209.77 119.534 209.77 117.013V109.218C208.631 111.442 206.454 112.579 203.037 112.579H197.988C192.84 112.579 190.562 110.405 190.562 105.512V90.5151C190.555 90.3856 190.577 90.2562 190.625 90.1357C190.673 90.0153 190.747 89.9066 190.841 89.8172C190.935 89.7278 191.047 89.6598 191.17 89.6178C191.293 89.5758 191.423 89.5608 191.552 89.5739H196.849C197.491 89.5739 197.839 89.9213 197.839 90.5151V103.649C197.839 106.218 198.383 106.713 201.452 106.713H205.214C208.479 106.713 209.767 105.377 209.767 102.66V90.5151C209.767 89.9213 210.112 89.5739 210.757 89.5739H216.056C216.183 89.5617 216.311 89.5777 216.43 89.6207C216.55 89.6637 216.659 89.7327 216.749 89.8227C216.839 89.9127 216.907 90.0215 216.95 90.1412C216.993 90.2609 217.008 90.3886 216.996 90.5151V117.792C216.993 122.976 214.221 125.649 208.827 125.649Z" fill="white"/>
</g>
<path d="M64.0341 139.43C64.0341 136.011 59.0439 137.495 59.0439 135.109C59.0439 134.115 59.8269 133.599 60.8223 133.625C61.9504 133.638 62.5344 134.341 62.614 134.964H63.9412C63.7952 133.559 62.6406 132.591 60.8754 132.591C59.0439 132.591 57.8096 133.625 57.8096 135.149C57.8096 138.581 62.8131 136.991 62.8131 139.483C62.8131 140.357 62.123 141.02 60.955 141.02C59.6677 141.02 59.1235 140.251 59.0439 139.483H57.7565C57.7831 141.007 59.097 142.04 60.955 142.04C62.9591 142.04 64.0341 140.742 64.0341 139.43Z" fill="#D4C2FF"/>
<path d="M72.2615 134.685H71.0538V138.674C71.0538 140.238 70.2177 141.007 68.9701 141.007C67.7491 141.007 66.9395 140.251 66.9395 138.78V134.685H65.745V138.939C65.745 141.02 67.059 142.053 68.7312 142.053C69.7001 142.053 70.5893 141.629 71.0538 140.874V141.947H72.2615V134.685Z" fill="#D4C2FF"/>
<path d="M73.8495 138.29C73.8495 140.543 75.3492 142.067 77.2869 142.067C78.6274 142.067 79.5697 141.378 80.0077 140.596V141.947H81.2287V134.685H80.0077V136.011C79.583 135.255 78.6539 134.566 77.3002 134.566C75.3492 134.566 73.8495 136.024 73.8495 138.29ZM80.0077 138.303C80.0077 140.013 78.8663 141.007 77.5391 141.007C76.2119 141.007 75.0838 139.999 75.0838 138.29C75.0838 136.58 76.2119 135.613 77.5391 135.613C78.8663 135.613 80.0077 136.62 80.0077 138.303Z" fill="#D4C2FF"/>
<path d="M88.0157 136.024V134.685H86.8079V145.393H88.0157V140.609C88.4669 141.351 89.4092 142.067 90.7364 142.067C92.6874 142.067 94.1871 140.543 94.1871 138.29C94.1871 136.024 92.6874 134.566 90.7364 134.566C89.4092 134.566 88.4537 135.255 88.0157 136.024ZM92.9528 138.29C92.9528 139.999 91.8247 141.007 90.4843 141.007C89.1703 141.007 88.0157 140.013 88.0157 138.303C88.0157 136.62 89.1703 135.613 90.4843 135.613C91.8247 135.613 92.9528 136.58 92.9528 138.29Z" fill="#D4C2FF"/>
<path d="M95.7768 141.947H96.9846V132.141H95.7768V141.947Z" fill="#D4C2FF"/>
<path d="M98.5917 138.29C98.5917 140.543 100.091 142.067 102.029 142.067C103.37 142.067 104.312 141.378 104.75 140.596V141.947H105.971V134.685H104.75V136.011C104.325 135.255 103.396 134.566 102.042 134.566C100.091 134.566 98.5917 136.024 98.5917 138.29ZM104.75 138.303C104.75 140.013 103.609 141.007 102.281 141.007C100.954 141.007 99.826 139.999 99.826 138.29C99.826 136.58 100.954 135.613 102.281 135.613C103.609 135.613 104.75 136.62 104.75 138.303Z" fill="#D4C2FF"/>
<path d="M108.237 141.947H109.445V135.679H110.971V134.685H109.445V134.168C109.445 133.228 109.804 132.83 110.892 132.83V131.823C109.034 131.823 108.237 132.552 108.237 134.168V134.685H107.295V135.679H108.237V141.947Z" fill="#D4C2FF"/>
<path d="M119.281 138.303C119.281 136.011 117.675 134.566 115.605 134.566C113.548 134.566 111.928 136.011 111.928 138.303C111.928 140.609 113.495 142.067 115.552 142.067C117.622 142.067 119.281 140.609 119.281 138.303ZM113.163 138.303C113.163 136.474 114.317 135.613 115.591 135.613C116.839 135.613 118.047 136.474 118.047 138.303C118.047 140.145 116.812 141.007 115.552 141.007C114.291 141.007 113.163 140.145 113.163 138.303Z" fill="#D4C2FF"/>
<path d="M122.077 137.998C122.077 136.315 122.953 135.799 124.107 135.799H124.426V134.553C123.271 134.553 122.488 135.056 122.077 135.865V134.685H120.869V141.947H122.077V137.998Z" fill="#D4C2FF"/>
<path d="M136.318 141.947H137.513V137.667C137.513 135.586 136.225 134.553 134.566 134.553C133.451 134.553 132.416 135.123 131.991 136.17C131.514 135.083 130.518 134.553 129.324 134.553C128.368 134.553 127.506 134.964 127.028 135.732V134.685H125.82V141.947H127.028V137.945C127.028 136.382 127.864 135.6 129.085 135.6C130.279 135.6 131.076 136.355 131.076 137.839V141.947H132.27V137.945C132.27 136.382 133.106 135.6 134.327 135.6C135.522 135.6 136.318 136.355 136.318 137.839V141.947Z" fill="#D4C2FF"/>
<path d="M139.042 138.29C139.042 140.543 140.542 142.067 142.48 142.067C143.82 142.067 144.763 141.378 145.201 140.596V141.947H146.422V134.685H145.201V136.011C144.776 135.255 143.847 134.566 142.493 134.566C140.542 134.566 139.042 136.024 139.042 138.29ZM145.201 138.303C145.201 140.013 144.059 141.007 142.732 141.007C141.405 141.007 140.277 139.999 140.277 138.29C140.277 136.58 141.405 135.613 142.732 135.613C144.059 135.613 145.201 136.62 145.201 138.303Z" fill="#D4C2FF"/>
<path d="M151.55 138.29C151.55 140.543 153.049 142.067 155 142.067C156.328 142.067 157.27 141.391 157.708 140.583V141.947H158.929V132.141H157.708V135.984C157.203 135.149 156.155 134.566 155.014 134.566C153.049 134.566 151.55 136.024 151.55 138.29ZM157.708 138.303C157.708 140.013 156.566 141.007 155.239 141.007C153.912 141.007 152.784 139.999 152.784 138.29C152.784 136.58 153.912 135.613 155.239 135.613C156.566 135.613 157.708 136.62 157.708 138.303Z" fill="#D4C2FF"/>
<path d="M164.062 135.586C165.31 135.586 166.371 136.368 166.358 137.786H161.766C161.899 136.368 162.881 135.586 164.062 135.586ZM167.46 139.708H166.159C165.894 140.49 165.204 141.046 164.115 141.046C162.881 141.046 161.846 140.238 161.753 138.767H167.566C167.592 138.515 167.606 138.303 167.606 138.038C167.606 136.05 166.225 134.566 164.115 134.566C161.992 134.566 160.519 136.011 160.519 138.303C160.519 140.609 162.045 142.067 164.115 142.067C165.92 142.067 167.088 141.033 167.46 139.708Z" fill="#D4C2FF"/>
<path d="M61.1143 152.52C62.3619 152.52 63.4236 153.302 63.4103 154.72H58.8183C58.951 153.302 59.9331 152.52 61.1143 152.52ZM64.5119 156.641H63.2113C62.9458 157.423 62.2557 157.98 61.1674 157.98C59.9331 157.98 58.8979 157.171 58.805 155.7H64.6181C64.6446 155.448 64.6579 155.236 64.6579 154.971C64.6579 152.984 63.2776 151.499 61.1674 151.499C59.0439 151.499 57.5707 152.944 57.5707 155.236C57.5707 157.542 59.097 159 61.1674 159C62.9724 159 64.1403 157.966 64.5119 156.641Z" fill="#D4C2FF"/>
<path d="M71.4812 156.906C71.4281 154.309 67.2076 155.25 67.2076 153.527C67.2076 152.944 67.7385 152.52 68.6277 152.52C69.5966 152.52 70.154 153.05 70.2071 153.779H71.4148C71.3352 152.361 70.2735 151.499 68.6676 151.499C67.0484 151.499 65.9999 152.414 65.9999 153.527C65.9999 156.23 70.3 155.289 70.3 156.906C70.3 157.503 69.7691 157.98 68.8135 157.98C67.7916 157.98 67.1678 157.449 67.1015 156.747H65.8539C65.9335 158.072 67.128 159 68.8268 159C70.4327 159 71.4812 158.099 71.4812 156.906Z" fill="#D4C2FF"/>
<path d="M73.4516 156.893C73.4516 158.351 74.1815 158.881 75.4689 158.881H76.5572V157.86H75.668C74.9247 157.86 74.6593 157.609 74.6593 156.893V152.612H76.5572V151.619H74.6593V149.79H73.4516V151.619H72.5092V152.612H73.4516V156.893Z" fill="#D4C2FF"/>
<path d="M84.4706 151.619H83.2629V155.607C83.2629 157.171 82.4268 157.94 81.1792 157.94C79.9582 157.94 79.1486 157.184 79.1486 155.713V151.619H77.9541V155.872C77.9541 157.953 79.2681 158.987 80.9403 158.987C81.9092 158.987 82.7984 158.563 83.2629 157.807V158.881H84.4706V151.619Z" fill="#D4C2FF"/>
<path d="M86.0586 155.223C86.0586 157.476 87.5583 159 89.5093 159C90.8365 159 91.7788 158.324 92.2168 157.516V158.881H93.4378V149.074H92.2168V152.917C91.7124 152.082 90.664 151.499 89.5226 151.499C87.5583 151.499 86.0586 152.957 86.0586 155.223ZM92.2168 155.236C92.2168 156.946 91.0754 157.94 89.7482 157.94C88.421 157.94 87.2929 156.933 87.2929 155.223C87.2929 153.514 88.421 152.546 89.7482 152.546C91.0754 152.546 92.2168 153.553 92.2168 155.236Z" fill="#D4C2FF"/>
<path d="M102.38 155.236C102.38 152.944 100.774 151.499 98.7038 151.499C96.6467 151.499 95.0275 152.944 95.0275 155.236C95.0275 157.542 96.5936 159 98.6507 159C100.721 159 102.38 157.542 102.38 155.236ZM96.2618 155.236C96.2618 153.408 97.4164 152.546 98.6905 152.546C99.9381 152.546 101.146 153.408 101.146 155.236C101.146 157.078 99.9116 157.94 98.6507 157.94C97.3899 157.94 96.2618 157.078 96.2618 155.236Z" fill="#D4C2FF"/>
<path d="M109.197 156.906C109.144 154.309 104.924 155.25 104.924 153.527C104.924 152.944 105.455 152.52 106.344 152.52C107.313 152.52 107.87 153.05 107.923 153.779H109.131C109.051 152.361 107.989 151.499 106.384 151.499C104.764 151.499 103.716 152.414 103.716 153.527C103.716 156.23 108.016 155.289 108.016 156.906C108.016 157.503 107.485 157.98 106.53 157.98C105.508 157.98 104.884 157.449 104.817 156.747H103.57C103.65 158.072 104.844 159 106.543 159C108.149 159 109.197 158.099 109.197 156.906Z" fill="#D4C2FF"/>
<path d="M121.342 155.236C121.342 152.944 119.736 151.499 117.666 151.499C115.608 151.499 113.989 152.944 113.989 155.236C113.989 157.542 115.555 159 117.612 159C119.683 159 121.342 157.542 121.342 155.236ZM115.223 155.236C115.223 153.408 116.378 152.546 117.652 152.546C118.9 152.546 120.108 153.408 120.108 155.236C120.108 157.078 118.873 157.94 117.612 157.94C116.352 157.94 115.223 157.078 115.223 155.236Z" fill="#D4C2FF"/>
<path d="M128.252 158.881H129.446V154.6C129.446 152.52 128.159 151.486 126.473 151.486C125.491 151.486 124.615 151.897 124.138 152.652V151.619H122.93V158.881H124.138V154.865C124.138 153.302 124.987 152.533 126.221 152.533C127.442 152.533 128.252 153.288 128.252 154.773V158.881Z" fill="#D4C2FF"/>
<path d="M131.419 158.881H132.627V149.074H131.419V158.881Z" fill="#D4C2FF"/>
<path d="M134.685 158.881H135.893V151.619H134.685V158.881ZM135.309 150.439C135.747 150.439 136.105 150.081 136.105 149.618C136.105 149.154 135.747 148.796 135.309 148.796C134.845 148.796 134.486 149.154 134.486 149.618C134.486 150.081 134.845 150.439 135.309 150.439Z" fill="#D4C2FF"/>
<path d="M143.273 158.881H144.468V154.6C144.468 152.52 143.181 151.486 141.495 151.486C140.513 151.486 139.637 151.897 139.159 152.652V151.619H137.951V158.881H139.159V154.865C139.159 153.302 140.009 152.533 141.243 152.533C142.464 152.533 143.273 153.288 143.273 154.773V158.881Z" fill="#D4C2FF"/>
<path d="M149.533 152.52C150.781 152.52 151.842 153.302 151.829 154.72H147.237C147.37 153.302 148.352 152.52 149.533 152.52ZM152.931 156.641H151.63C151.365 157.423 150.674 157.98 149.586 157.98C148.352 157.98 147.317 157.171 147.224 155.7H153.037C153.063 155.448 153.077 155.236 153.077 154.971C153.077 152.984 151.696 151.499 149.586 151.499C147.463 151.499 145.989 152.944 145.989 155.236C145.989 157.542 147.516 159 149.586 159C151.391 159 152.559 157.966 152.931 156.641Z" fill="#D4C2FF"/>
<path d="M155.852 158.139C155.852 157.675 155.494 157.317 155.056 157.317C154.591 157.317 154.233 157.675 154.233 158.139C154.233 158.602 154.591 158.96 155.056 158.96C155.494 158.96 155.852 158.602 155.852 158.139Z" fill="#D4C2FF"/>
<defs>
<clipPath id="clip0_31952_957">
<rect width="160" height="46.7505" fill="white" transform="translate(57 79)"/>
</clipPath>
</defs>
</svg>
