<svg width="20" height="20" viewBox="0 0 20 20" fill="none" xmlns="http://www.w3.org/2000/svg">
<g clip-path="url(#clip0_32078_470)">
<path d="M10.0018 0H9.99677C4.48302 0 -0.000732422 4.485 -0.000732422 10C-0.000732422 12.1875 0.704268 14.215 1.90302 15.8612L0.656768 19.5763L4.50052 18.3475C6.08177 19.395 7.96802 20 10.0018 20C15.5155 20 19.9993 15.5138 19.9993 10C19.9993 4.48625 15.5155 0 10.0018 0Z" fill="#4CAF50"/>
<path d="M15.8205 14.1212C15.5792 14.8025 14.6217 15.3675 13.858 15.5325C13.3355 15.6437 12.653 15.7325 10.3555 14.78C7.41671 13.5625 5.52421 10.5762 5.37671 10.3825C5.23546 10.1887 4.18921 8.80123 4.18921 7.36623C4.18921 5.93123 4.91796 5.23248 5.21171 4.93248C5.45296 4.68623 5.85171 4.57373 6.23421 4.57373C6.35796 4.57373 6.46921 4.57998 6.56921 4.58498C6.86296 4.59748 7.01046 4.61498 7.20421 5.07873C7.44546 5.65998 8.03296 7.09498 8.10296 7.24248C8.17421 7.38998 8.24546 7.58998 8.14546 7.78373C8.05171 7.98373 7.96921 8.07248 7.82171 8.24248C7.67421 8.41248 7.53421 8.54248 7.38671 8.72498C7.25171 8.88373 7.09921 9.05373 7.26921 9.34748C7.43921 9.63498 8.02671 10.5937 8.89171 11.3637C10.008 12.3575 10.913 12.675 11.2367 12.81C11.478 12.91 11.7655 12.8862 11.9417 12.6987C12.1655 12.4575 12.4417 12.0575 12.723 11.6637C12.923 11.3812 13.1755 11.3462 13.4405 11.4462C13.7105 11.54 15.1392 12.2462 15.433 12.3925C15.7267 12.54 15.9205 12.61 15.9917 12.7337C16.0617 12.8575 16.0617 13.4387 15.8205 14.1212Z" fill="#FAFAFA"/>
</g>
<defs>
<clipPath id="clip0_32078_470">
<rect width="20" height="20" fill="white" transform="translate(-0.000732422)"/>
</clipPath>
</defs>
</svg>
